<svg xmlns="http://www.w3.org/2000/svg" viewBox="0 0 512 512" class="w-8 h-8">
    <path class="fill-text-secondary" d="M346.315 360h-181.63c-38.149 0-69.185-31.036-69.185-69.185v-69.63c0-38.149 31.036-69.185 69.185-69.185h181.63c38.149 0 69.185 31.036 69.185 69.185v69.63c0 38.149-31.036 69.185-69.185 69.185zm-181.63-192c-29.326 0-53.185 23.859-53.185 53.185v69.63c0 29.326 23.859 53.185 53.185 53.185h181.63c29.326 0 53.185-23.859 53.185-53.185v-69.63c0-29.326-23.859-53.185-53.185-53.185z"></path>
    <path class="fill-text-secondary" d="M231.5 264a8 8 0 0 0 0-16h-40v-40h40a8 8 0 0 0 0-16h-48a8 8 0 0 0-8 8v112a8 8 0 0 0 8 8h48a8 8 0 0 0 0-16h-40v-40zM327.5 192a8 8 0 0 0-8 8v78.111l-40.845-81.689C274.896 188.9 263.5 191.59 263.5 200v112a8 8 0 0 0 16 0v-78.111l40.845 81.689c3.76 7.523 15.155 4.834 15.155-3.578V200a8 8 0 0 0-8-8z"></path>
    <path class="fill-text-secondary" d="M255.75 511.5C114.405 511.5 0 397.115 0 255.75 0 114.405 114.385 0 255.75 0 397.095 0 511.5 114.385 511.5 255.75c0 141.345-114.385 255.75-255.75 255.75zm0-495.5C123.551 16 16 123.551 16 255.75S123.551 495.5 255.75 495.5 495.5 387.949 495.5 255.75 387.949 16 255.75 16z"></path>
</svg>
