<svg xmlns="http://www.w3.org/2000/svg" viewBox="0 0 1000 600" class="w-8 h-8 rounded-full">
  <path fill="#CC1429" d="M0 0h1000v600H0z"/>
  <path fill="#FEFEFD" d="M560 360h440v240H560z"/>
  <path fill="#FEFDFE" d="M0 360h440v240H0z"/>
  <path fill="#FEFEFE" d="M560 0h440v240H560zM0 0h440v240H0z"/>
  <path fill="#00237C" d="M600 433c4.14 1.656 7.895 3.499 11.75 5.688l2.073 1.171c8.59 4.894 17.038 10.027 25.505 15.13 6.56 3.95 13.144 7.861 19.735 11.761l3.352 1.984q2.582 1.53 5.164 3.057 10.777 6.378 21.546 12.772l2.054 1.219a6226 6226 0 0 1 29.655 17.722c14.992 9.005 30.055 17.89 45.115 26.78l2.801 1.654 2.758 1.628a2270 2270 0 0 1 16.393 9.778c6.41 3.855 12.85 7.659 19.287 11.468a4129 4129 0 0 1 26.159 15.6 2393 2393 0 0 0 16.222 9.664q4.351 2.574 8.706 5.143c5.7 3.368 11.385 6.76 17.041 10.203 1.09.66 2.178 1.322 3.3 2.003L881 599v1H600z"/>
  <path fill="#01227D" d="M600 0h281c-2.903 2.903-5.403 4.547-8.934 6.59l-1.773 1.032q-1.882 1.095-3.769 2.183c-3.315 1.914-6.622 3.843-9.93 5.77l-1.994 1.158a1164 1164 0 0 0-16.038 9.517 2630 2630 0 0 1-23.44 13.948 2067 2067 0 0 0-15.34 9.134 2662 2662 0 0 1-15.262 9.105c-.623.37-1.246.738-1.887 1.117l-3.842 2.274c-12.462 7.379-24.88 14.825-37.23 22.389-5.467 3.34-10.964 6.608-16.538 9.767-6.847 3.882-13.564 7.962-20.273 12.079-10.534 6.44-21.16 12.691-31.87 18.834a1040 1040 0 0 0-21.744 12.812c-2.592 1.566-5.19 3.122-7.788 4.678-11.82 7.076-23.616 14.183-35.352 21.397-.906.555-1.812 1.11-2.746 1.68l-2.422 1.489C601 168 601 168 600 168z"/>
  <path fill="#01227C" d="M399 432h1v168H119c3.797-3.038 7.449-5.59 11.61-8.02l1.924-1.136q3.106-1.833 6.216-3.657 3.277-1.932 6.553-3.868l4.408-2.601a2342 2342 0 0 0 18.976-11.343c9.444-5.685 18.946-11.267 28.465-16.824A1600 1600 0 0 0 224 536.5a1786 1786 0 0 1 30.518-18.193 2464 2464 0 0 0 28.537-16.933 2580 2580 0 0 1 19.507-11.624q13.637-8.044 27.25-16.125l2.081-1.235a5989 5989 0 0 0 29.893-17.867 2705 2705 0 0 1 16.726-9.972l1.9-1.124a6486 6486 0 0 1 9.173-5.414l3.29-1.943 2.93-1.726c2.093-1.164 2.093-1.164 3.195-2.344"/>
  <path fill="#00237D" d="M119 0h281v167c-4.14-1.656-7.895-3.499-11.75-5.688l-2.084-1.178c-8.451-4.816-16.765-9.863-25.096-14.884-9.187-5.533-18.416-10.996-27.642-16.464a3662 3662 0 0 1-18.94-11.294q-7.47-4.49-14.968-8.93l-1.888-1.117-3.84-2.273A3003 3003 0 0 1 260.189 85a1213 1213 0 0 0-27.54-16.32c-14.703-8.448-29.24-17.192-43.757-25.953a2480 2480 0 0 0-30.337-18.011C148.56 18.876 138.59 12.998 128.687 7l-2.983-1.798-2.692-1.64-2.36-1.433L119 1z"/>
  <path fill="#01237B" d="M0 76c11.902 4.761 22.814 12.27 33.77 18.87 8.312 5 16.667 9.923 25.042 14.817 8.794 5.141 17.568 10.31 26.292 15.569 9.378 5.648 18.8 11.225 28.218 16.808 7.132 4.23 14.253 8.476 21.36 12.747A2195 2195 0 0 0 151 164.5a2293 2293 0 0 1 18.129 10.781q8.146 4.895 16.336 9.719l4.228 2.496q3.228 1.906 6.46 3.805 3.189 1.876 6.374 3.762l1.979 1.158c1.515.898 3.007 1.835 4.494 2.779v1H0z"/>
  <path fill="#00247B" d="M0 400h209c-3.476 2.781-6.428 4.961-10.21 7.137-.99.572-1.98 1.144-2.998 1.734l-3.167 1.817-6.566 3.8-3.192 1.846c-3.989 2.318-7.941 4.69-11.89 7.073-6.12 3.688-12.267 7.328-18.415 10.968l-7.011 4.152-1.828 1.083a24325 24325 0 0 0-24.457 14.505 4763 4763 0 0 0-22.663 13.525 4005 4005 0 0 1-18.58 11.072l-6.115 3.629a57827 57827 0 0 1-27.333 16.215l-4.012 2.38a2664 2664 0 0 0-21.06 12.591l-1.785 1.08q-4.146 2.504-8.282 5.027l-2.897 1.753-2.525 1.538C2 524 2 524 0 524z"/>
  <path fill="#02237D" d="M791 400h209v124c-3.726-1.49-6.795-2.936-10.21-4.941l-3-1.755-3.165-1.866-3.279-1.924a1853 1853 0 0 1-18.705-11.123c-5.318-3.208-10.666-6.363-16.016-9.516a3731 3731 0 0 1-27.664-16.503 1598 1598 0 0 0-17.274-10.247c-7.015-4.096-13.95-8.32-20.885-12.55-8.52-5.197-17.034-10.368-25.777-15.185C843.512 432.562 833.29 426.212 823 420q-3.999-2.409-8-4.813l-3.41-2.05a796 796 0 0 0-8.274-4.867l-2.396-1.398q-2.318-1.349-4.64-2.688A242 242 0 0 1 791 401z"/>
  <path fill="#01237B" d="M1000 76v124H791c3.49-2.792 6.385-4.927 10.191-7.074l3.068-1.746 3.303-1.868a1053 1053 0 0 0 28.25-16.687 1642 1642 0 0 1 28.875-17.25 2608 2608 0 0 0 30.368-18.001 2579 2579 0 0 1 19.508-11.624c18.095-10.672 36.175-21.374 54.187-32.188l2.32-1.391q6.269-3.766 12.516-7.566l2.806-1.699a1617 1617 0 0 0 5.341-3.251l2.4-1.452 2.121-1.292C998 76 998 76 1000 76"/>
  <path fill="#0B2468" d="M791 400h209v1l-201 1v2c-3.693-.66-4.706-1.53-8-4"/>
  <path fill="#092364" d="m199 194 10 5v1H0v-1l200-1 1-2h-2z"/>
  <path fill="#0F2D7B" d="M870 593a690 690 0 0 1 4.938 2.375l2.777 1.336C880 598 880 598 881 600h-11v-2h2z"/>
  <path fill="#0B2A77" d="M119 0h10l-1 4h2l-1 3q-2.504-1.463-5-2.938l-2.813-1.652L119 1z"/>
  <path fill="#102E7A" d="m800 49-8 5-1-2-2-1c6.191-3.202 6.191-3.202 11-2"/>
  <path fill="#18307D" d="M271 511c-2.895 2.412-5.588 4.408-9 6l-3 2-1-3a417 417 0 0 1 4.813-3.063l2.707-1.722C268 510 268 510 271 511"/>
  <path fill="#DDE8F7" d="M143 439v3c-2.938 2.125-2.938 2.125-6 4l-1 1c-1.666.04-3.334.043-5 0 3.794-3.219 7.658-5.616 12-8"/>
  <path fill="#102E75" d="M780 56h7c-3.467 2.957-6.869 5.078-11 7v-2h2v-3h2z"/>
  <path fill="#132C73" d="m791 400 14 1v1h-6v2c-3.693-.66-4.706-1.53-8-4"/>
  <path fill="#153376" d="m195 409-9 5v-4c5.625-2.125 5.625-2.125 9-1"/>
  <path fill="#112F70" d="m199 194 10 5v1l-9-1 1-3h-2z"/>
  <path fill="#122D7D" d="M862 157c0 3 0 3-1.25 4.625-1.924 1.512-3.36 1.963-5.75 2.375v-3z"/>
  <path fill="#16347B" d="M152 579c0 3 0 3-2 5.188L148 586l-4-2z"/>
  <path fill="#0E2978" d="M874 0h7c-1.974 2.523-2.967 2.993-6.188 3.688L872 4z"/>
  <path fill="#1B357F" d="m159 170 8 4-4 2-3-1z"/>
  <path fill="#102B7D" d="M128 596v2h-3v2h-6c4.5-4 4.5-4 9-4"/>
  <path fill="#04246D" d="M832 573c2.343.256 4.678.593 7 1l1 2h-8z"/>
  <path fill="#09297B" d="M398 160h1v7l-4-2a159 159 0 0 1 3-5"/>
  <path fill="#0F2771" d="m892 139 3 1c-1.813 2-1.813 2-4 4h-3c1-3 1-3 4-5"/>
  <path fill="#102B71" d="M667 124h5c-2.528 2.799-4.204 4.458-8 5v-2h3z"/>
  <path fill="#173380" d="M838 25v2l-6 3-1-4c2.49-.687 4.379-1 7-1"/>
  <path fill="#DCEAF6" d="M873 5v3c-2.5 2.188-2.5 2.188-5 4v-2l-2-1z"/>
</svg>
