<svg xmlns="http://www.w3.org/2000/svg" viewBox="0 0 512 512" class="w-8 h-8">
    <path class="group-[.active]:fill-accent fill-text-secondary" d="M346.314 360H164.685c-38.149 0-69.185-31.036-69.185-69.185v-69.63c0-38.149 31.036-69.185 69.185-69.185h181.629c38.149 0 69.186 31.036 69.186 69.185v69.63c0 38.149-31.036 69.185-69.186 69.185zM164.685 168c-29.326 0-53.185 23.859-53.185 53.185v69.63c0 29.326 23.859 53.185 53.185 53.185h181.629c29.326 0 53.186-23.859 53.186-53.185v-69.63c0-29.326-23.859-53.185-53.186-53.185z"></path>
    <path class="group-[.active]:fill-accent fill-text-secondary" d="M239.5 231.06v-6.12c0-18.163-14.548-32.94-32.431-32.94H183.5a8 8 0 0 0-8 8v112a8 8 0 0 0 16 0v-48h10.192l21.452 51.097a8 8 0 0 0 14.753-6.193L218.205 262c12.414-4.625 21.295-16.749 21.295-30.94zm-16 0c0 9.259-7.29 16.94-16.442 16.94-1.538-.009 5.67 0-15.558 0v-40h15.569c9.06 0 16.431 7.599 16.431 16.94zM299.5 320c-19.851 0-36-19.738-36-44v-76a8 8 0 0 1 16 0v76c0 15.178 9.159 28 20 28s20-12.822 20-28v-76a8 8 0 0 1 16 0v76c0 24.262-16.149 44-36 44z"></path>
    <path class="group-[.active]:fill-accent fill-text-secondary" d="M255.75 511.5C114.405 511.5 0 397.115 0 255.75 0 114.405 114.385 0 255.75 0 397.095 0 511.5 114.385 511.5 255.75c0 141.345-114.385 255.75-255.75 255.75zm0-495.5C123.551 16 16 123.551 16 255.75S123.551 495.5 255.75 495.5c132.198 0 239.75-107.551 239.75-239.75S387.948 16 255.75 16z"></path>
</svg>
