<svg xmlns="http://www.w3.org/2000/svg" viewBox="0 0 64 64" class="w-8 h-8">
    <path class="group-[.active]:fill-accent fill-text-secondary" d="m61.305 25.292-6.043-5.04c-.947-.79-2.076-1.276-3.179-1.369-1.282-.103-2.433.332-3.162 1.205l-4.703 5.639-17.945 21.519.012.01a1.482 1.482 0 0 0-.359.982l.237 11.671a1.499 1.499 0 0 0 1.799 1.44l11.227-2.283c.34-.069.628-.261.842-.518l.011.009 17.86-21.416 4.703-5.639c1.413-1.697.841-4.424-1.3-6.21zm-32.18 32.757-.135-6.622 6.505 5.326zm9.563-2.557-9.143-7.487 16.016-19.204 9.075 7.568zM60.3 29.579l-3.742 4.486-9.075-7.568 3.742-4.487c.09-.108.326-.16.606-.137.487.041 1.037.29 1.508.683l6.043 5.04c.941.784 1.13 1.73.918 1.983z"></path>
    <path class="group-[.active]:fill-accent fill-text-secondary" d="M20.971 49.408a1.538 1.538 0 0 0-.235-.121c-.009-.004-.017-.01-.026-.013a1.477 1.477 0 0 0-.537-.104l-.028-.002a1.517 1.517 0 0 0-.537.104l-.026.008a1.506 1.506 0 0 0-.487.323l-.003.002-.003.003-.007.007-3.797 3.796a2.148 2.148 0 0 1-3.026.004l-1.05-1.05a2.146 2.146 0 0 1 0-3.021l3.802-3.802.004-.004.005-.005.003-.005c.14-.141.248-.306.322-.484.004-.009.005-.019.009-.028a1.51 1.51 0 0 0 .104-.535l-.002-.028a1.48 1.48 0 0 0-.105-.538l-.011-.02a1.461 1.461 0 0 0-.123-.239 18.61 18.61 0 0 1-2.604-6.277c-.005-.023-.015-.043-.021-.066a1.54 1.54 0 0 0-.069-.215c-.015-.035-.037-.066-.054-.1-.028-.053-.054-.106-.087-.155-.022-.032-.049-.059-.073-.088-.037-.046-.073-.093-.115-.134-.022-.022-.048-.039-.071-.059-.05-.043-.1-.087-.155-.123-.02-.013-.042-.022-.063-.034a1.355 1.355 0 0 0-.193-.1c-.025-.01-.051-.015-.076-.024-.066-.023-.131-.046-.2-.059-.048-.009-.097-.01-.146-.015-.047-.005-.093-.014-.142-.014H5.763a2.145 2.145 0 0 1-2.143-2.142v-1.47c0-1.181.961-2.142 2.143-2.142h5.387l.009-.002a1.49 1.49 0 0 0 .445-.077c.024-.008.048-.013.072-.022.137-.052.263-.123.378-.21.022-.016.041-.033.062-.051.112-.096.213-.204.293-.328.01-.016.017-.033.026-.049.08-.135.143-.282.178-.44l.003-.008a18.64 18.64 0 0 1 2.604-6.278c.05-.077.089-.157.123-.239l.01-.02c.07-.175.103-.357.105-.539l.002-.027a1.512 1.512 0 0 0-.104-.536l-.009-.027a1.506 1.506 0 0 0-.323-.487l-.002-.003-.003-.003-.009-.009-3.795-3.795a2.148 2.148 0 0 1-.004-3.026l1.05-1.05a2.147 2.147 0 0 1 3.022 0l3.811 3.811c.006.006.015.008.021.014.128.124.274.217.432.287.036.016.071.028.107.041.161.057.327.096.498.097h.004c.169 0 .338-.039.502-.098.049-.017.093-.042.14-.064.058-.028.119-.044.174-.08a18.613 18.613 0 0 1 6.276-2.604c.018-.004.034-.012.052-.017.079-.02.156-.042.229-.073.038-.016.071-.039.106-.058.05-.027.101-.051.148-.083.04-.028.075-.061.112-.093.036-.031.075-.059.108-.093.034-.034.061-.073.091-.111.031-.038.064-.073.09-.114.026-.039.044-.081.066-.123.023-.044.05-.086.069-.132.02-.05.033-.102.048-.154.012-.041.028-.081.037-.124.014-.071.018-.145.022-.218.001-.025.008-.049.008-.075V7.765c0-1.181.961-2.142 2.143-2.142h1.469c1.182 0 2.143.961 2.143 2.142v5.385c0 .033.008.063.01.096.004.066.007.132.02.196.01.049.027.094.042.141.014.046.024.093.042.137.02.05.048.095.074.142.021.038.038.078.062.114.028.042.061.079.093.117.029.036.056.074.089.108s.071.062.108.092c.038.032.073.066.114.094.044.03.093.053.14.079.038.021.074.045.114.062.067.029.139.049.211.068.024.006.045.017.069.022a18.648 18.648 0 0 1 6.278 2.604c.054.035.115.051.171.079.048.023.093.048.142.065.164.059.332.098.502.098.172 0 .34-.04.501-.097.036-.013.071-.025.107-.041.158-.07.304-.163.432-.287.006-.006.015-.008.022-.014l3.806-3.807a2.15 2.15 0 0 1 3.026-.004l1.05 1.05c.572.572.739 1.392.523 2.121.116.003.23-.001.347.008a7.89 7.89 0 0 1 2.559.687c.448-1.711.026-3.604-1.308-4.937l-1.05-1.05c-1.996-1.996-5.253-1.998-7.265 0l-2.991 2.992a21.523 21.523 0 0 0-5.039-2.09v-4.23a5.148 5.148 0 0 0-5.143-5.142h-1.469a5.15 5.15 0 0 0-5.143 5.142v4.229a21.548 21.548 0 0 0-5.039 2.09L17.4 11.088c-2.007-1.994-5.266-1.992-7.26.004l-1.05 1.05c-1.996 1.995-1.997 5.252 0 7.265l2.991 2.991a21.565 21.565 0 0 0-2.09 5.039H5.763A5.15 5.15 0 0 0 .62 32.579v1.47a5.148 5.148 0 0 0 5.143 5.142h4.228a21.53 21.53 0 0 0 2.09 5.039l-2.995 2.996c-1.994 2.007-1.992 5.264.004 7.26l1.05 1.05c.998.998 2.312 1.497 3.627 1.497s2.632-.498 3.637-1.497l2.992-2.991a21.588 21.588 0 0 0 3.145 1.467l-.066-3.255a18.781 18.781 0 0 1-2.504-1.349z"></path>
    <path class="group-[.active]:fill-accent fill-text-secondary" d="M20.391 33.314c0-6.022 4.899-10.921 10.921-10.921 3.582 0 6.758 1.742 8.751 4.414l1.97-2.362c-2.556-3.084-6.412-5.052-10.721-5.052-7.676 0-13.921 6.245-13.921 13.921 0 5.207 2.878 9.749 7.123 12.137l1.966-2.357c-3.602-1.788-6.089-5.494-6.089-9.78z"></path>
</svg>
